<svg width="80" height="80" viewBox="0 0 80 80" fill="none" xmlns="http://www.w3.org/2000/svg">
<g clip-path="url(#clip0_306_101)">
<path d="M58.6349 35.4298C58.29 35.1917 57.85 35.1374 57.4579 35.2858L48.0369 38.8455V30.247H57.9091C58.3816 30.247 58.8155 29.9861 59.0368 29.5687C59.2582 29.1512 59.231 28.6457 58.966 28.2545L53.1433 19.6596V13.4874C53.1433 12.7822 52.5718 12.2108 51.8667 12.2108C51.1617 12.2108 50.5901 12.7822 50.5901 13.4874V20.0511C50.5901 20.3064 50.6667 20.5558 50.8099 20.767L55.5023 27.6937H48.0369V21.2644C48.0369 16.4341 44.1074 12.5044 39.2771 12.5044H38.7794C38.4545 10.1548 37.248 8.08277 35.5033 6.63698L38.6497 1.99273C39.0451 1.4089 38.8924 0.615196 38.3088 0.219792C37.7249 -0.175612 36.9314 -0.0229315 36.5358 0.560558L33.3295 5.29332C32.1855 4.78779 30.922 4.50473 29.593 4.50473C28.2834 4.50473 27.0167 4.77673 25.8536 5.28924L22.65 0.560558C22.2545 -0.0229315 21.4606 -0.175612 20.8771 0.219792C20.2934 0.615196 20.1408 1.4089 20.5362 1.99273L23.6802 6.63341C23.4572 6.8186 23.241 7.01417 23.0335 7.22166C21.5862 8.66898 20.6778 10.5109 20.4049 12.5044H19.9088C15.0786 12.5044 11.1489 16.4341 11.1489 21.2644V27.6937H3.6834L8.37583 20.767C8.51898 20.5558 8.59558 20.3064 8.59558 20.0511V13.4874C8.59558 12.7822 8.024 12.2108 7.31898 12.2108C6.61396 12.2108 6.04238 12.7822 6.04238 13.4874V19.6596L0.219745 28.2543C-0.0452766 28.6455 -0.0725106 29.151 0.148936 29.5686C0.370383 29.9859 0.804255 30.2469 1.2766 30.2469H11.1488V38.8453L1.72783 35.2857C1.33549 35.1372 0.89566 35.1912 0.550809 35.4297C0.205957 35.6681 0 36.0608 0 36.48V41.9161C0 42.6213 0.571574 43.1927 1.2766 43.1927C1.98162 43.1927 2.55319 42.6213 2.55319 41.9161V38.3272L11.1488 41.5749V47.0938H1.2766C0.882723 47.0938 0.510638 47.2756 0.268936 47.5868C0.0272341 47.8979 -0.0575319 48.303 0.0393192 48.6848L6.04238 72.3195V78.7234C6.04238 79.4286 6.61396 80 7.31898 80C8.024 80 8.59558 79.4286 8.59558 78.7234V72.1595C8.59558 72.0535 8.5823 71.948 8.55626 71.8452L2.91796 49.6469H11.1488V52.6446C11.1488 59.303 14.282 65.3393 20.2095 70.1005C24.6182 73.6416 28.9794 75.223 29.1631 75.2886C29.302 75.3383 29.4473 75.3631 29.5927 75.3631C29.738 75.3631 29.8834 75.3383 30.0223 75.2886C30.2058 75.2229 34.5672 73.6414 38.9758 70.1005C44.9035 65.3393 48.0368 59.303 48.0368 52.6446V49.6469H56.2676L50.6293 71.8453C50.6032 71.9481 50.59 72.0537 50.59 72.1597V78.7234C50.59 79.4286 51.1615 80 51.8666 80C52.5716 80 53.1432 79.4286 53.1432 78.7234V72.3192L59.1464 48.6845C59.2434 48.3027 59.1586 47.8974 58.9168 47.5864C58.6749 47.2755 58.303 47.0935 57.9091 47.0935H48.0368V41.5745L56.6323 38.3269V41.9158C56.6323 42.621 57.2039 43.1924 57.9089 43.1924C58.614 43.1924 59.1855 42.621 59.1855 41.9158V36.48C59.1855 36.0608 58.9798 35.6681 58.6349 35.4298ZM13.702 21.2644C13.702 17.8421 16.4861 15.0576 19.9086 15.0576H23.2951C24.0002 15.0576 24.5717 14.4862 24.5717 13.781C24.5717 13.0758 24.0002 12.5044 23.2951 12.5044H22.9908C23.2412 11.1949 23.8752 9.99052 24.8388 9.02694C26.1086 7.75715 27.7969 7.05792 29.5929 7.05792C32.8635 7.05792 35.5947 9.40583 36.193 12.5044H28.4015C27.6965 12.5044 27.1249 13.0758 27.1249 13.781C27.1249 14.4862 27.6965 15.0576 28.4015 15.0576H39.2771C42.6994 15.0576 45.4837 17.8419 45.4837 21.2644V28.9703C45.4837 32.3926 42.6996 35.1769 39.2771 35.1769H34.7285C32.7066 35.1769 30.8419 36.084 29.593 37.5706C28.3442 36.0841 26.4795 35.1769 24.4575 35.1769H19.9088C16.4865 35.1769 13.7021 32.3927 13.7021 28.9703V21.2644H13.702ZM45.4834 52.6446C45.4834 58.5636 42.7753 63.7512 37.4344 68.0635C34.1226 70.7374 30.7598 72.2387 29.5925 72.7158C28.4242 72.2382 25.0618 70.7369 21.7506 68.0635C16.4097 63.7512 13.7016 58.5636 13.7016 52.6446V35.1454C15.289 36.7408 17.4851 37.7301 19.9083 37.7301H24.457C26.1672 37.7301 27.6928 38.7794 28.3159 40.3582V68.5192C28.3159 69.2244 28.8875 69.7958 29.5925 69.7958C30.2975 69.7958 30.8691 69.2244 30.8691 68.5192V40.3582C31.4924 38.7794 33.0179 37.7301 34.728 37.7301H39.2766C41.6997 37.7301 43.8958 36.7408 45.4832 35.1454V52.6446H45.4834Z" fill="#686767"/>
<path d="M70.7998 43.8298C70.0948 43.8298 69.5232 44.4012 69.5232 45.1064V71.8714C69.5232 72.5766 70.0948 73.148 70.7998 73.148C71.5048 73.148 72.0764 72.5766 72.0764 71.8714V45.1064C72.0764 44.4014 71.5048 43.8298 70.7998 43.8298Z" fill="#686767"/>
<path d="M80 40C80 39.2948 79.4285 38.7234 78.7234 38.7234H74.2686V17.8667L76.3953 14.8541C76.5473 14.6386 76.629 14.3816 76.629 14.118V1.2766C76.629 0.571404 76.0574 0 75.3524 0H66.2485C65.5435 0 64.9719 0.571404 64.9719 1.2766V14.1178C64.9719 14.3814 65.0535 14.6386 65.2056 14.854L67.3323 17.8666V38.7234H62.8764C62.1714 38.7234 61.5999 39.2948 61.5999 40C61.5999 40.6317 62.0589 41.1547 62.6613 41.257L62.6633 71.8548C62.6598 74.0259 63.5033 76.0691 65.0387 77.6078C66.5767 79.1493 68.6216 79.9988 70.7978 80C72.9748 80 75.0206 79.1525 76.5582 77.6133C78.0945 76.0752 78.9405 74.0303 78.9398 71.856L78.9389 41.2572C79.541 41.1547 80 40.6317 80 40ZM69.6516 16.7254L67.5251 13.7129V2.55319H74.0756V13.7129L71.949 16.7254C71.797 16.9409 71.7153 17.198 71.7153 17.4616V38.7234H69.8851V17.4616C69.8853 17.198 69.8036 16.9409 69.6516 16.7254ZM74.7517 75.8089C73.6965 76.865 72.2923 77.4468 70.7983 77.4468C69.3054 77.446 67.9016 76.8628 66.8458 75.8046C65.7925 74.7489 65.2138 73.3477 65.2164 71.857L65.2143 41.2766H76.3856L76.3864 71.8562C76.3869 73.3494 75.8063 74.753 74.7517 75.8089Z" fill="#686767"/>
</g>
<defs>
<clipPath id="clip0_306_101">
<rect width="80" height="80" fill="white"/>
</clipPath>
</defs>
</svg>
