<svg width="80" height="80" viewBox="0 0 80 80" fill="none" xmlns="http://www.w3.org/2000/svg">
<g clip-path="url(#clip0_306_50)">
<path d="M77.727 37.6597L70.8528 19.8242L77.7253 2.14734C77.9139 1.66234 77.8511 1.11563 77.557 0.686094C77.2633 0.256875 76.7765 0 76.2561 0H3.74389C2.87342 0 2.16748 0.705781 2.16748 1.57641V78.4238C2.16748 79.2942 2.87326 80.0002 3.74389 80.0002H11.6256C12.4961 80.0002 13.202 79.2944 13.202 78.4238V39.803H76.2562C76.7758 39.803 77.262 39.547 77.5559 39.1184C77.8498 38.6903 77.9139 38.1444 77.727 37.6597ZM10.0492 76.8473H5.32014V3.15266H10.0492V76.8473ZM13.202 36.6503V3.15266H73.9522L67.6934 19.2503C67.5509 19.6163 67.5503 20.0222 67.6917 20.3884L73.9594 36.6502H13.202V36.6503Z" fill="#686767"/>
<path d="M21.1822 10.4433H28.5714C29.4419 10.4433 30.1478 9.73756 30.1478 8.86693C30.1478 7.99631 29.442 7.29053 28.5714 7.29053H21.1822C18.303 7.29053 15.9605 9.63303 15.9605 12.5122V16.2562C15.9605 19.1354 18.303 21.4779 21.1822 21.4779C21.2661 21.4779 21.3481 21.4694 21.4285 21.4568C21.5088 21.4694 21.5908 21.4779 21.6747 21.4779H24.926C26.0669 21.4779 26.9949 22.406 26.9949 23.5468V27.2907C26.9949 28.4316 26.0667 29.3596 24.926 29.3596H17.5367C16.6663 29.3596 15.9603 30.0654 15.9603 30.936C15.9603 31.8065 16.6661 32.5124 17.5367 32.5124H24.926C27.8052 32.5124 30.1477 30.1699 30.1477 27.2907V23.5469C30.1477 20.6677 27.8052 18.3252 24.926 18.3252H21.6747C21.5908 18.3252 21.5088 18.3337 21.4285 18.3463C21.348 18.3337 21.2661 18.3252 21.1822 18.3252C20.0413 18.3252 19.1133 17.3971 19.1133 16.2563V12.5124C19.1133 11.3715 20.0414 10.4433 21.1822 10.4433Z" fill="#686767"/>
<path d="M38.5221 10.4433H45.9114C46.7818 10.4433 47.4878 9.73756 47.4878 8.86693C47.4878 7.99631 46.782 7.29053 45.9114 7.29053H38.5221C35.6429 7.29053 33.3004 9.63303 33.3004 12.5122V19.9015V27.2907C33.3004 30.1699 35.6429 32.5124 38.5221 32.5124H45.9114C46.7818 32.5124 47.4878 31.8066 47.4878 30.936C47.4878 30.0655 46.782 29.3596 45.9114 29.3596H38.5221C37.3812 29.3596 36.4532 28.4315 36.4532 27.2907V21.4779H45.9114C46.7818 21.4779 47.4878 20.7721 47.4878 19.9015C47.4878 19.0308 46.782 18.3251 45.9114 18.3251H36.4531V12.5124C36.4531 11.3715 37.3812 10.4433 38.5221 10.4433Z" fill="#686767"/>
<path d="M59.6059 7.29065H55.862C52.9828 7.29065 50.6403 9.63315 50.6403 12.5124V27.2906C50.6403 30.1699 52.9828 32.5124 55.862 32.5124H59.6059C62.4851 32.5124 64.8276 30.1699 64.8276 27.2906V12.5124C64.8274 9.63315 62.4851 7.29065 59.6059 7.29065ZM61.6748 27.2906C61.6748 28.4316 60.7467 29.3596 59.6059 29.3596H55.862C54.721 29.3596 53.7931 28.4314 53.7931 27.2906V12.5124C53.7931 11.3714 54.7212 10.4435 55.862 10.4435H59.6059C60.7468 10.4435 61.6748 11.3716 61.6748 12.5124V27.2906Z" fill="#686767"/>
<path d="M49.4581 45.9114C49.4581 45.0409 48.7524 44.335 47.8817 44.335H18.7192C17.8488 44.335 17.1428 45.0407 17.1428 45.9114C17.1428 46.782 17.8486 47.4878 18.7192 47.4878H47.8817C48.7524 47.4876 49.4581 46.7818 49.4581 45.9114Z" fill="#686767"/>
<path d="M74.8768 50.6405H46.3054C45.4349 50.6405 44.729 51.3463 44.729 52.2169C44.729 53.0875 45.4348 53.7933 46.3054 53.7933H74.8768C75.7473 53.7933 76.4532 53.0875 76.4532 52.2169C76.4532 51.3463 75.7473 50.6405 74.8768 50.6405Z" fill="#686767"/>
</g>
<defs>
<clipPath id="clip0_306_50">
<rect width="80" height="80" fill="white"/>
</clipPath>
</defs>
</svg>
