<svg width="80" height="80" viewBox="0 0 80 80" fill="none" xmlns="http://www.w3.org/2000/svg">
<path d="M73.7778 5.40942H6.22219C2.79125 5.40942 0 8.20083 0 11.6316C0 14.4371 0 65.5744 0 68.3683C0 71.7993 2.79125 74.5905 6.22219 74.5905H73.7778C77.2087 74.5905 80 71.7993 80 68.3683C80 65.573 80 14.4363 80 11.6316C80 8.20083 77.2087 5.40942 73.7778 5.40942ZM74.6667 68.3683C74.6667 68.8585 74.268 69.2572 73.7778 69.2572H6.22219C5.73203 69.2572 5.33328 68.8585 5.33328 68.3683V24.0374H74.6666V68.3683H74.6667ZM74.6667 18.7041H5.33328V11.6316C5.33328 11.1415 5.73203 10.7427 6.22219 10.7427H73.7778C74.268 10.7427 74.6667 11.1415 74.6667 11.6316V18.7041Z" fill="#686767"/>
<path d="M11.2195 16.7293C12.3272 16.7293 13.2251 15.8313 13.2251 14.7236C13.2251 13.616 12.3272 12.718 11.2195 12.718C10.1118 12.718 9.21387 13.616 9.21387 14.7236C9.21387 15.8313 10.1118 16.7293 11.2195 16.7293Z" fill="#686767"/>
<path d="M17.6498 16.7293C18.7575 16.7293 19.6554 15.8313 19.6554 14.7236C19.6554 13.616 18.7575 12.718 17.6498 12.718C16.5421 12.718 15.6442 13.616 15.6442 14.7236C15.6442 15.8313 16.5421 16.7293 17.6498 16.7293Z" fill="#686767"/>
<path d="M24.08 16.7293C25.1876 16.7293 26.0856 15.8313 26.0856 14.7236C26.0856 13.616 25.1876 12.718 24.08 12.718C22.9723 12.718 22.0743 13.616 22.0743 14.7236C22.0743 15.8313 22.9723 16.7293 24.08 16.7293Z" fill="#686767"/>
<path d="M22.17 58.6594C24.6579 61.1475 28.4304 57.3773 25.9412 54.8881L17.6007 46.5475L25.9412 38.207C28.4329 35.7153 24.6642 31.9414 22.17 34.4358L11.944 44.6617C10.9026 45.7031 10.9026 47.3916 11.944 48.433L22.17 58.6594Z" fill="#686767"/>
<path d="M57.8298 58.6595L68.0559 48.4334C69.0967 47.3929 69.0973 45.7034 68.0559 44.6621L57.8298 34.436C55.3386 31.9446 51.5636 35.7125 54.0586 38.2073L62.3992 46.5478L54.0586 54.8882C51.5202 57.4267 55.3886 61.1006 57.8298 58.6595Z" fill="#686767"/>
<path d="M35.2793 61.2002L50.5438 34.7614C52.309 31.7044 47.6858 29.0444 45.9249 32.0947L30.6604 58.5335C28.8838 61.6108 33.5338 64.2238 35.2793 61.2002Z" fill="#686767"/>
</svg>
