<svg id="svg_internal_id" width="80" height="80" viewBox="0 0 80 80" fill="none" xmlns="http://www.w3.org/2000/svg">
<path class="internal_svg_class" d="M0 0V64.5161H80V0H0ZM77.4194 61.9355H2.58065V2.58065H77.4194V61.9355Z" style="fill: #686767; transition: fill 0.65s ease"/>
<path class="internal_svg_class" d="M50.3225 5.16125H5.16125V33.5484H50.3225V5.16125ZM47.7419 30.9677H7.7419V7.7419H47.7419V30.9677Z" style="fill: #686767; transition: fill 0.65s ease"/>
<path class="internal_svg_class" d="M74.8387 5.16125H52.9032V7.7419H74.8387V5.16125Z" style="fill: #686767; transition: fill 0.65s ease"/>
<path class="internal_svg_class" d="M74.8387 10.3226H52.9032V12.9033H74.8387V10.3226Z" style="fill: #686767; transition: fill 0.65s ease"/>
<path class="internal_svg_class" d="M74.8387 15.4839H52.9032V18.0645H74.8387V15.4839Z" style="fill: #686767; transition: fill 0.65s ease"/>
<path class="internal_svg_class" d="M74.8387 20.6451H52.9032V23.2258H74.8387V20.6451Z" style="fill: #686767; transition: fill 0.65s ease"/>
<path class="internal_svg_class" d="M74.8387 25.8064H52.9032V28.387H74.8387V25.8064Z" style="fill: #686767; transition: fill 0.65s ease"/>
<path class="internal_svg_class" d="M74.8387 30.9678H52.9032V33.5484H74.8387V30.9678Z" style="fill: #686767; transition: fill 0.65s ease"/>
<path class="internal_svg_class" d="M27.0967 36.129H5.16125V59.3548H27.0967V36.129ZM24.5161 56.7742H7.7419V38.7097H24.5161V56.7742Z" style="fill: #686767; transition: fill 0.65s ease"/>
<path class="internal_svg_class" d="M29.6774 59.3548H50.3225V36.129H29.6774V59.3548ZM32.258 38.7097H47.7419V56.7742H32.258V38.7097Z" style="fill: #686767; transition: fill 0.65s ease"/>
<path class="internal_svg_class" d="M74.8387 36.129H52.9032V59.3548H74.8387V36.129ZM72.258 56.7742H55.4838V38.7097H72.258V56.7742Z" style="fill: #686767; transition: fill 0.65s ease"/>
<path class="internal_svg_class" d="M27.0968 28.3871C32.0775 28.3871 36.1291 24.3355 36.1291 19.3549C36.1291 14.3742 32.0775 10.3226 27.0968 10.3226C22.1162 10.3226 18.0646 14.3742 18.0646 19.3549C18.0646 24.3355 22.1162 28.3871 27.0968 28.3871ZM27.0968 12.9033C30.6543 12.9033 33.5484 15.7975 33.5484 19.3549C33.5484 22.9123 30.6543 25.8065 27.0968 25.8065C23.5394 25.8065 20.6452 22.9123 20.6452 19.3549C20.6452 15.7975 23.5394 12.9033 27.0968 12.9033Z" style="fill: #686767; transition: fill 0.65s ease"/>
<path class="internal_svg_class" d="M73.5484 67.0968H12.56L1.26965 73.5484L12.56 80H73.5484C77.1058 80 80 77.1058 80 73.5484C80 69.991 77.1058 67.0968 73.5484 67.0968ZM12.9032 77.2233L6.47223 73.5484L12.9032 69.8736V77.2233ZM61.9355 77.4194H15.4838V69.6774H61.9355V77.4194ZM67.0967 77.4194H64.5161V69.6774H67.0967V77.4194ZM73.5484 77.4194H69.6774V69.6774H73.5484C75.6826 69.6774 77.4193 71.4142 77.4193 73.5484C77.4193 75.6826 75.6826 77.4194 73.5484 77.4194Z" style="fill: #686767; transition: fill 0.65s ease"/>
</svg>
